# File created by Blade
# Date/Time:  Tue Sep 30 19:15:05 2014
# Frame Rate: 120.000 fps
#------------------------------------------------------
:FULLY-SPECIFIED
:DEGREES
1651
root -1.338897 33.175432 -4.066192 9.223385 -27.938589 -22.141243
Spine 1.546474 3.078370 12.799422
Head -4.812010 -17.244879 15.844989
LeftShoulder 17.392650 7.257132 18.737834
LeftArm 6.132448 -23.139352 -80.271947
LeftForeArm -129.081307 24.164251 -18.389446
LeftHand -0.000010 40.674500 19.774105
LeftHandThumb1 30.357831 13.997178 22.438692
RightShoulder -11.228811 -20.311655 -16.325518
RightArm 7.507054 -16.956893 72.321484
RightForeArm 21.393170 -10.747226 25.454395
RightHand 0.000017 -7.850523 14.370745
RightHandThumb1 30.482666 -12.916435 -20.793814
LeftUpLeg -9.322117 18.090105 11.996462
LeftLeg 21.738400 0.000000 0.000000
LeftFoot -23.449541 22.201485 -8.470697
LeftToeBase 6.046100 -0.000000 -0.000000
RightUpLeg -101.503501 -20.789835 7.866734
RightLeg 87.581802 -0.000000 -0.000000
RightFoot 34.951516 -5.200892 -3.092650
RightToeBase 14.201300 -0.000000 -0.000000
1652
root -1.339697 33.169832 -4.084492 9.100580 -27.981014 -22.297055
Spine 1.902202 3.071957 12.985513
Head -4.949689 -17.267545 15.864202
LeftShoulder 17.367207 7.274517 18.747875
LeftArm 6.392615 -23.438817 -80.132865
LeftForeArm -128.940724 24.027482 -18.212588
LeftHand -0.000088 40.773413 20.538502
LeftHandThumb1 30.357831 13.997178 22.438692
RightShoulder -11.189698 -20.308024 -16.252468
RightArm 7.469573 -16.942028 72.256652
RightForeArm 21.326151 -10.663050 25.358405
RightHand 0.000055 -7.862869 14.234163
RightHandThumb1 30.482666 -12.916435 -20.793814
LeftUpLeg -9.197148 18.102112 12.181640
LeftLeg 21.857800 -0.000000 -0.000000
LeftFoot -23.502494 22.317328 -8.314300
LeftToeBase 6.053900 0.000000 0.000000
RightUpLeg -101.454369 -20.834968 7.903282
RightLeg 83.503998 -0.000000 -0.000000
RightFoot 35.439645 -5.279715 -2.634830
RightToeBase 14.027600 0.000000 0.000000
1653
root -1.340697 33.165732 -4.100692 9.010432 -28.016981 -22.453685
Spine 2.194074 3.028767 13.172827
Head -5.013099 -17.257868 15.866962
LeftShoulder 17.393092 7.299921 18.739599
LeftArm 6.580207 -23.690376 -79.957161
LeftForeArm -128.849430 23.921658 -18.086851
LeftHand 0.000001 40.717644 20.697272
LeftHandThumb1 30.357831 13.997178 22.438692
RightShoulder -11.161595 -20.288838 -16.164393
RightArm 7.419424 -16.934982 72.164907
RightForeArm 21.288845 -10.574920 25.219410
RightHand -0.000005 -7.879395 14.340335
RightHandThumb1 30.482666 -12.916435 -20.793814
LeftUpLeg -9.090961 18.120083 12.363616
LeftLeg 21.940500 -0.000000 -0.000000
LeftFoot -23.526195 22.368450 -8.175757
LeftToeBase 6.027200 -0.000000 -0.000000
RightUpLeg -101.305892 -20.860031 7.942175
RightLeg 79.217499 0.000000 0.000000
RightFoot 35.924583 -5.189199 -2.543531
RightToeBase 14.254600 -0.000000 -0.000000
1654
root -1.337797 33.159735 -4.118292 8.895530 -28.019336 -22.576244
Spine 2.499870 2.968083 13.334222
Head -5.080868 -17.245531 15.878521
LeftShoulder 17.303460 7.265269 18.757772
LeftArm 6.699754 -23.764241 -79.852662
LeftForeArm -128.837808 23.920042 -18.078756
LeftHand -0.000005 40.687508 20.730362
LeftHandThumb1 30.357831 13.997178 22.438692
RightShoulder -11.177894 -20.270551 -16.086843
RightArm 7.321602 -16.948546 72.105972
RightForeArm 21.174847 -10.545520 25.288868
RightHand -0.000023 -7.872646 14.389057
RightHandThumb1 30.482666 -12.916435 -20.793814
LeftUpLeg -8.986683 18.100157 12.509042
LeftLeg 22.013700 0.000000 0.000000
LeftFoot -23.555631 22.458055 -8.004346
LeftToeBase 6.047100 -0.000000 -0.000000
RightUpLeg -100.992608 -20.951913 7.878869
RightLeg 74.670197 0.000000 0.000000
RightFoot 36.332892 -5.344272 -2.027813
RightToeBase 14.147800 -0.000000 0.000000
1655
root -1.335797 33.156534 -4.135092 8.822205 -28.015727 -22.692139
Spine 2.723781 2.880816 13.478397
Head -5.076157 -17.235436 15.885828
LeftShoulder 17.319934 7.247570 18.784157
LeftArm 6.776186 -23.844582 -79.778604
LeftForeArm -128.841388 23.939403 -18.093795
LeftHand -0.000022 40.635114 21.105877
LeftHandThumb1 30.357831 13.997178 22.438692
RightShoulder -11.174053 -20.266190 -15.997337
RightArm 7.365476 -16.942383 72.041029
RightForeArm 21.107520 -10.488034 25.246594
RightHand 0.000033 -7.945779 14.460478
RightHandThumb1 30.482666 -12.916435 -20.793814
LeftUpLeg -8.909721 18.128864 12.640523
LeftLeg 22.057600 -0.000000 0.000000
LeftFoot -23.552529 22.479612 -7.856684
LeftToeBase 6.045500 -0.000000 -0.000000
RightUpLeg -100.561920 -21.019761 7.774269
RightLeg 69.917000 -0.000000 -0.000000
RightFoot 36.548282 -5.377481 -1.691634
RightToeBase 14.636200 -0.000000 0.000000
1656
root -1.334097 33.155333 -4.150392 8.762188 -28.017783 -22.785047
Spine 2.891381 2.802680 13.583067
Head -5.017449 -17.239931 15.901876
LeftShoulder 17.374310 7.205449 18.816207
LeftArm 6.730921 -23.914294 -79.772827
LeftForeArm -128.881434 24.004582 -18.161376
LeftHand -0.000056 40.655696 21.307216
LeftHandThumb1 30.357831 13.997178 22.438692
RightShoulder -11.146064 -20.294598 -15.900856
RightArm 7.450945 -16.889391 71.986061
RightForeArm 20.997236 -10.385959 25.159830
RightHand -0.000005 -7.964845 14.341447
RightHandThumb1 30.482666 -12.916435 -20.793814
LeftUpLeg -8.835743 18.248245 12.748311
LeftLeg 22.059000 -0.000000 -0.000000
LeftFoot -23.543527 22.426858 -7.724616
LeftToeBase 6.144900 -0.000000 0.000000
RightUpLeg -100.021661 -21.077592 7.650891
RightLeg 64.947304 -0.000000 0.000000
RightFoot 36.566714 -5.260963 -1.530078
RightToeBase 14.888000 0.000000 0.000000
1657
root -1.332497 33.155234 -4.162192 8.716644 -28.009964 -22.830017
Spine 2.981495 2.699398 13.635184
Head -4.908505 -17.236973 15.885403
LeftShoulder 17.443073 7.165003 18.831812
LeftArm 6.599115 -23.911754 -79.779592
LeftForeArm -128.957649 24.110765 -18.278322
LeftHand -0.000068 40.676379 21.269236
LeftHandThumb1 30.357831 13.997178 22.438692
RightShoulder -11.146582 -20.301660 -15.825106
RightArm 7.446144 -16.908955 71.980432
RightForeArm 20.854742 -10.384970 25.322503
RightHand -0.000007 -7.980972 14.456715
RightHandThumb1 30.482666 -12.916435 -20.793814
LeftUpLeg -8.764463 18.328362 12.804248
LeftLeg 21.994301 0.000000 0.000000
LeftFoot -23.484728 22.392949 -7.563654
LeftToeBase 6.001400 -0.000000 -0.000000
RightUpLeg -99.397505 -21.140445 7.505412
RightLeg 59.772999 -0.000000 -0.000000
RightFoot 36.333161 -5.114144 -1.652225
RightToeBase 15.679100 -0.000000 0.000000
1658
root -1.333697 33.157233 -4.166991 8.652715 -27.977577 -22.853265
Spine 3.065780 2.551637 13.676195
Head -4.827805 -17.203380 15.850418
LeftShoulder 17.403978 7.152021 18.837793
LeftArm 6.419581 -23.743656 -79.826024
LeftForeArm -129.029783 24.125114 -18.331861
LeftHand -0.000061 40.701093 21.491786
LeftHandThumb1 30.357831 13.997178 22.438692
RightShoulder -11.121652 -20.349627 -15.741834
RightArm 7.449562 -16.871430 71.972834
RightForeArm 20.713491 -10.405408 25.530801
RightHand 0.000028 -8.005036 14.589447
RightHandThumb1 30.482666 -12.916435 -20.793814
LeftUpLeg -8.647449 18.387419 12.850567
LeftLeg 21.865900 -0.000000 -0.000000
LeftFoot -23.420254 22.355722 -7.365462
LeftToeBase 6.076300 -0.000000 0.000000
RightUpLeg -98.672327 -21.214561 7.328228
RightLeg 54.465900 0.000000 0.000000
RightFoot 36.105341 -5.181293 -1.931349
RightToeBase 15.525400 -0.000000 -0.000000
1659
root -1.334997 33.160532 -4.172892 8.631699 -27.963394 -22.865291
Spine 3.086627 2.435223 13.695848
Head -4.750473 -17.160723 15.821861
LeftShoulder 17.467563 7.190093 18.826196
LeftArm 6.189104 -23.662695 -79.881933
LeftForeArm -129.106118 24.175255 -18.411975
LeftHand 0.000029 40.722053 21.347868
LeftHandThumb1 30.357831 13.997178 22.438692
RightShoulder -11.083653 -20.383291 -15.671889
RightArm 7.507325 -16.871542 71.985769
RightForeArm 20.624094 -10.327761 25.471050
RightHand -0.000002 -8.020234 14.470748
RightHandThumb1 30.482666 -12.916435 -20.793814
LeftUpLeg -8.553041 18.419280 12.878642
LeftLeg 21.701000 -0.000000 0.000000
LeftFoot -23.366898 22.320021 -7.280970
LeftToeBase 6.088300 -0.000000 -0.000000
RightUpLeg -97.874110 -21.264944 7.117509
RightLeg 49.019199 -0.000000 0.000000
RightFoot 35.778330 -5.076643 -2.380815
RightToeBase 15.553100 -0.000000 -0.000000
1660
root -1.340697 33.165632 -4.171692 8.565765 -27.945965 -22.862433
Spine 3.140257 2.296906 13.704510
Head -4.693936 -17.104079 15.783831
LeftShoulder 17.670884 7.305312 18.793862
LeftArm 5.948361 -23.745144 -79.932173
LeftForeArm -129.154415 24.290742 -18.518695
LeftHand -0.000103 40.702677 21.248349
LeftHandThumb1 30.357831 13.997178 22.438692
RightShoulder -11.031667 -20.432352 -15.597101
RightArm 7.524487 -16.853676 72.013991
RightForeArm 20.534703 -10.270788 25.454794
RightHand 0.000026 -8.052210 14.623813
RightHandThumb1 30.482666 -12.916435 -20.793814
LeftUpLeg -8.388886 18.419072 12.911996
LeftLeg 21.500799 -0.000000 -0.000000
LeftFoot -23.284738 22.300068 -7.198106
LeftToeBase 6.171400 -0.000000 -0.000000
RightUpLeg -96.970701 -21.312360 6.840415
RightLeg 43.563702 0.000000 0.000000
RightFoot 35.404972 -5.242536 -2.901297
RightToeBase 15.785900 0.000000 0.000000
1661
root -1.347997 33.171034 -4.160592 8.448435 -27.937814 -22.807906
Spine 3.202061 2.170211 13.668286
Head -4.651806 -17.038314 15.742394
LeftShoulder 17.703137 7.382773 18.782693
LeftArm 5.722619 -23.632106 -80.024312
LeftForeArm -129.188574 24.470127 -18.659364
LeftHand 0.000066 40.752897 21.526062
LeftHandThumb1 30.357831 13.997178 22.438692
RightShoulder -10.958680 -20.472770 -15.546280
RightArm 7.478365 -16.872882 72.063627
RightForeArm 20.459896 -10.236509 25.469768
RightHand -0.000032 -8.022962 14.828580
RightHandThumb1 30.482666 -12.916435 -20.793814
LeftUpLeg -8.160149 18.454026 12.910936
LeftLeg 21.265200 -0.000000 -0.000000
LeftFoot -23.169291 22.231600 -7.075055
LeftToeBase 6.123300 -0.000000 -0.000000
RightUpLeg -95.946162 -21.377916 6.298722
RightLeg 38.157101 -0.000000 -0.000000
RightFoot 35.249732 -5.587617 -3.081655
RightToeBase 15.703300 0.000000 0.000000
1662
root -1.359697 33.178435 -4.146792 8.311412 -27.909664 -22.741263
Spine 3.280871 2.047728 13.616033
Head -4.657845 -16.981087 15.729346
LeftShoulder 17.815403 7.498370 18.763638
LeftArm 5.480843 -23.619893 -80.063689
LeftForeArm -129.228784 24.649608 -18.803775
LeftHand -0.000055 40.799529 21.536673
LeftHandThumb1 30.357831 13.997178 22.438692
RightShoulder -10.927499 -20.537575 -15.474492
RightArm 7.467468 -16.943090 72.104362
RightForeArm 20.429293 -10.144408 25.307522
RightHand 0.000014 -8.091721 14.806933
RightHandThumb1 30.482666 -12.916435 -20.793814
LeftUpLeg -7.896719 18.459169 12.915701
LeftLeg 20.993500 -0.000000 -0.000000
LeftFoot -23.078490 22.161669 -7.016694
LeftToeBase 6.105300 -0.000000 -0.000000
RightUpLeg -94.910707 -21.454915 5.712058
RightLeg 32.915901 -0.000000 -0.000000
RightFoot 35.178756 -6.090568 -3.247339
RightToeBase 15.733500 -0.000000 -0.000000
1663
root -1.361597 33.178435 -4.116192 8.021120 -27.893050 -22.480292
Spine 3.420660 1.887912 13.388303
Head -4.692888 -16.917728 15.708401
LeftShoulder 17.952558 7.652147 18.732713
LeftArm 5.235935 -23.626361 -80.050309
LeftForeArm -129.273638 24.767992 -18.910468
LeftHand 0.000036 40.892805 21.204180
LeftHandThumb1 30.357831 13.997178 22.438692
RightShoulder -10.873580 -20.575585 -15.440943
RightArm 7.431602 -17.007852 72.204592
RightForeArm 20.355733 -10.034184 25.155497
RightHand 0.000029 -8.011145 14.916337
RightHandThumb1 30.482666 -12.916435 -20.793814
LeftUpLeg -7.526280 18.382475 12.726793
LeftLeg 20.647400 -0.000000 -0.000000
LeftFoot -22.921161 22.192149 -6.859891
LeftToeBase 5.987800 0.000000 0.000000
RightUpLeg -93.871446 -21.611631 4.815672
RightLeg 28.016899 -0.000000 0.000000
RightFoot 35.031461 -6.716873 -2.939595
RightToeBase 16.442699 -0.000000 -0.000000
